# xmcd CD database file
#
# Track frame offsets:
#	150
#	14695
#	27910
#	40900
#	53845
#	68180
#	81643
#	94208
#	105170
#	118243
#	134025
#	146473
#	158565
#	171160
#	184760
#	199255
#	213875
#	225698
#	238525
#	249955
#
# Disc length: 3512 seconds
#
# Revision: 3
# Processed by: cddbd v1.5.2PL0 Copyright (c) Steve Scherf et al.
# Submitted via: CDex 1.51
#
DISCID=190db614
DTITLE=Various Artist - Home On The Range - 20 Western Favourites
DYEAR=1994
DGENRE=Country
TTITLE0=Carson Robison and His Pioneers - Home On The Range
TTITLE1=Carson Robison and His Pioneers - The Candlelight In The Window
TTITLE2=Gene Autry - Be Honest With Me
TTITLE3=Jack Savage and His Cowboys - That Old Wooden Rocker
TTITLE4=Carson Robison and His Pioneers - Hallelujuah I'm A Bum
TTITLE5=Carson Robison and His Pioneers - Peg-Leg Jack
TTITLE6=Gene Autry - What's Gonna Happen To Me
TTITLE7=Jack Savage and His Cowboys - Going Back To Texas
TTITLE8=Carson Robison and His Pioneers - I Left Her Standing There
TTITLE9=Carson Robison and His Pioneers - Pals Of The Little Red School
TTITLE10=Gene Autry - Blueberry Hill
TTITLE11=Carson Robison and His Pioneers - I Was Born In Old Wyoming
TTITLE12=Jack Savage and His Cowboys - So I Joined The Navy
TTITLE13=Jack Savage and His Cowboys - Tumbling Tumble Weeds
TTITLE14=Carson Robison and His Pioneers - There's A Bridle Hanging On The Wall
TTITLE15=Carson Robison and His Pioneers - Ramblin' Cowboy
TTITLE16=Gene Autry - Sierra Sue
TTITLE17=Carson Robison and His Pioneers - Open Up Dem Pearly Gates
TTITLE18=Carson Robison and His Pioneers - I'm Leaving On That Blue River Train
TTITLE19=Gene Autry - Little Old Band Of Gold
EXTD=YEAR: 1994
EXTT0=
EXTT1=
EXTT2=
EXTT3=
EXTT4=
EXTT5=
EXTT6=
EXTT7=
EXTT8=
EXTT9=
EXTT10=
EXTT11=
EXTT12=
EXTT13=
EXTT14=
EXTT15=
EXTT16=
EXTT17=
EXTT18=
EXTT19=
PLAYORDER=
